<?xml version="1.0" encoding="UTF-8" standalone="no"?>
<!DOCTYPE svg PUBLIC "-//W3C//DTD SVG 1.1//EN" "http://www.w3.org/Graphics/SVG/1.1/DTD/svg11.dtd">
<svg width="100%" height="100%" viewBox="0 0 800 600" version="1.1" xmlns="http://www.w3.org/2000/svg" xmlns:xlink="http://www.w3.org/1999/xlink" xml:space="preserve" xmlns:serif="http://www.serif.com/" style="fill-rule:evenodd;clip-rule:evenodd;stroke-linejoin:round;stroke-miterlimit:2;">
    <rect x="0" y="0" width="800" height="600" style="fill:rgb(248,243,43);"/>
    <g id="ion-code-working" transform="matrix(11.5688,0,0,11.5688,238.037,114.911)">
        <path d="M8,16C8,15 8.5,14.5 9.5,14.5C10.5,14.5 11,15 11,16C11,17 10.5,17.5 9.5,17.5C8.5,17.5 8,17 8,16ZM12.5,16C12.5,15 13,14.5 14,14.5C15,14.5 15.5,15 15.5,16C15.5,17 15,17.5 14,17.5C13,17.5 12.5,17 12.5,16ZM17,16C17,15 17.5,14.5 18.5,14.5C19.5,14.5 20,15 20,16C20,17 19.5,17.5 18.5,17.5C17.5,17.5 17,17 17,16ZM8.5,24.5C8.062,24.5 7.75,24.375 7.437,24.062L0.437,17.062C0.124,16.749 -0.001,16.437 -0.001,15.999C-0.001,15.561 0.124,15.249 0.437,14.936L7.437,7.936C7.75,7.623 8.062,7.498 8.5,7.498C8.938,7.498 9.25,7.623 9.563,7.936C9.876,8.249 10.001,8.561 10.001,8.999C10.001,9.437 9.876,9.749 9.563,10.062L3.625,16L9.563,21.938C9.876,22.251 10.001,22.563 10.001,23.001C10.001,23.439 9.876,23.751 9.563,24.064C9.25,24.377 8.938,24.502 8.5,24.502L8.5,24.5ZM19.5,24.5C19.062,24.5 18.75,24.375 18.437,24.062C18.124,23.749 17.999,23.437 17.999,22.999C17.999,22.561 18.124,22.249 18.437,21.936L24.375,15.998L18.437,10.06C18.124,9.747 17.999,9.435 17.999,8.997C17.999,8.559 18.124,8.247 18.437,7.934C18.75,7.621 19.062,7.496 19.5,7.496C19.938,7.496 20.25,7.621 20.563,7.934L27.563,14.934C27.876,15.247 28.001,15.559 28.001,15.997C28.001,16.435 27.876,16.747 27.563,17.06L20.563,24.06C20.25,24.373 19.938,24.498 19.5,24.498L19.5,24.5Z" style="fill-rule:nonzero;"/>
    </g>
</svg>
