<?xml version="1.0" encoding="UTF-8" standalone="no"?>
<!DOCTYPE svg PUBLIC "-//W3C//DTD SVG 1.1//EN" "http://www.w3.org/Graphics/SVG/1.1/DTD/svg11.dtd">
<svg width="100%" height="100%" viewBox="0 0 800 600" version="1.1" xmlns="http://www.w3.org/2000/svg" xmlns:xlink="http://www.w3.org/1999/xlink" xml:space="preserve" xmlns:serif="http://www.serif.com/" style="fill-rule:evenodd;clip-rule:evenodd;stroke-linejoin:round;stroke-miterlimit:2;">
    <rect x="0" y="0" width="800" height="600" style="fill:rgb(249,137,72);"/>
    <g id="ion-ios-nutrition" transform="matrix(7.6555,0,0,7.6555,307.045,178.687)">
        <path d="M18.438,14.625C18.813,15 19.001,15.438 19.001,16C19.001,16.688 18.688,17.25 18.188,17.625C17.688,18 15,20 11.563,22.5L9.188,20.5C8.938,20.312 8.688,20.312 8.563,20.437C8.438,20.562 8.438,20.812 8.626,21.062L10.439,23.25L3.314,28.5C2.939,28.75 2.501,29 2.001,29C0.876,29 0.001,28.125 0.001,27C0.001,26.562 0.126,26.187 0.314,25.875C0.377,25.75 1.314,24.312 2.564,22.312L3.814,23.375C4.064,23.563 4.314,23.563 4.439,23.438C4.564,23.313 4.564,23.063 4.376,22.813L3.126,21.375C4.814,18.687 6.876,15.375 8.376,13L10.626,14.875C10.876,15.063 11.126,15.063 11.251,14.938C11.376,14.813 11.376,14.563 11.188,14.313L9.125,11.813C9.813,10.688 10.25,10 10.25,10C10.625,9.375 11.25,9 12,9C12.563,9 13.125,9.25 13.5,9.625L18.438,14.625ZM24,8.688L17.562,12.376L15.812,10.563L20.187,3L21.937,4L18.812,9.313L23,6.938L24,8.688Z" style="fill-rule:nonzero;"/>
    </g>
</svg>
